<svg width="1332" height="100" viewBox="0 0 1332 100" fill="none" xmlns="http://www.w3.org/2000/svg">
<path d="M60.97 72.3399L43.47 79.9699V79.1999C40.11 80.0399 36.33 80.5299 32.83 80.7399C16.31 80.5999 3.29 71.9199 3.08 61.6999V57.9199C8.47 65.7599 19.53 71.0799 32.83 70.8699C37.31 71.0799 41.93 70.3799 45.78 69.3299L47.32 65.5499C42.77 66.9499 37.73 67.8599 32.83 67.8599C16.31 67.8599 3.29 59.2499 3.08 48.8199V45.7399C8.47 53.0199 19.53 58.2699 32.83 57.9199C38.85 58.2699 44.66 57.0099 49.63 54.8399L50.4 51.0599C45.57 53.5799 39.34 55.0499 32.9 54.8399C16.38 55.0499 3.36 46.4399 3.15 35.7999V32.7199C8.54 40.1399 19.6 45.4599 32.9 45.6699C40.46 45.4599 47.6 43.4299 53.48 40.3499L54.25 35.7999C48.93 39.7199 41.16 42.3099 32.9 42.6599C16.38 42.3099 3.36 33.6299 3.15 22.8499C3.29 12.5599 16.38 3.94993 32.9 3.80993C42.7 3.94993 51.87 7.37993 57.26 12.9799L57.82 13.8899H61.67L61.11 12.9799C55.72 5.62993 44.87 0.799925 32.9 0.799925C14.56 0.729925 0 10.7399 0 22.7799V23.5499V62.3999C0.63 74.1599 14.84 83.7499 32.76 83.7499C44.59 83.8199 55.3 79.1299 60.97 72.3399Z" fill="white"/>
<path d="M53.8301 99.15L59.9901 72.97L42.2801 80.67L53.0601 35.31H32.3401L37.7301 12.98H103.88L98.4901 35.31H76.9301L72.3101 47.63L96.1801 37.62L53.8301 99.15ZM64.6101 67.65L61.5301 83.05L86.9401 44.62L66.1501 53.86L75.3901 32.3H96.1801L100.03 16.13H39.9701L36.1201 32.3H56.9101L46.9001 75.35L64.6101 67.65Z" fill="#F8F8F8"/>
<path d="M235.608 67.3334C235.89 77.1416 232.789 84.7079 226.587 90.3127C220.384 95.9174 211.927 98.7197 200.932 98.7197C189.937 98.7197 180.915 95.0767 174.149 88.0708C167.383 81.0649 164 71.8171 164 60.6076V42.3923C164 31.1828 167.383 21.9351 173.867 14.9292C180.633 7.92329 189.373 4.28025 200.086 4.28025C211.363 4.28025 220.102 7.0826 226.587 12.4071C233.071 18.0118 236.172 25.5781 235.89 35.3864V35.6666H217.847C217.847 29.7817 216.437 25.298 213.618 22.4956C210.799 19.6932 206.288 18.2921 200.368 18.2921C194.729 18.2921 190.501 20.5339 187.399 25.0177C184.298 29.5015 182.607 35.1062 182.607 42.1121V60.6076C182.607 67.6135 184.298 73.4985 187.399 77.9823C190.783 82.4661 195.293 84.7079 201.214 84.7079C206.852 84.7079 210.799 83.3068 213.618 80.5044C216.437 77.702 217.847 73.2183 217.847 67.3334H235.608ZM337.664 59.767C337.664 70.9764 333.999 80.5044 326.951 87.7906C319.902 95.0767 310.599 98.7197 299.04 98.7197C287.482 98.7197 278.46 95.0767 271.13 87.7906C264.082 80.5044 260.417 70.9764 260.417 59.767V43.233C260.417 32.0236 264.082 22.7758 271.13 15.2094C278.178 7.9233 287.482 4 298.758 4C310.317 4 319.621 7.64307 326.669 15.2094C333.999 22.4956 337.382 32.0236 337.382 43.233V59.767H337.664ZM319.057 42.9528C319.057 35.6667 317.365 30.062 313.7 25.298C310.035 20.8142 305.243 18.2921 298.758 18.2921C292.556 18.2921 287.482 20.5339 284.098 25.298C280.715 29.7817 278.742 35.6667 278.742 42.9528V59.4867C278.742 66.7728 280.434 72.6578 284.098 77.4218C287.482 81.9056 292.556 84.4277 298.758 84.4277C305.243 84.4277 310.035 82.1858 313.7 77.4218C317.365 72.938 319.057 66.7728 319.057 59.4867V42.9528ZM385.59 97.3186H366.983V5.40118H385.59V97.3186ZM492.438 97.3186H473.832L436.618 35.3864H436.336V97.3186H417.729V5.40118H436.336L473.55 67.3334H473.832V5.40118H492.438V97.3186ZM585.754 19.6932H559.254V97.3186H540.647V19.6932H514.71V5.40118H585.754V19.6932ZM662.437 56.9646H628.042V83.3068H668.921V97.3186H609.718V5.40118H668.921V19.6932H628.324V42.6725H662.719V56.9646H662.437ZM714.028 83.3068H755.471V97.3186H695.422V5.40118H714.028V83.3068ZM834.409 56.9646H800.014V83.3068H840.893V97.3186H781.69V5.40118H840.893V19.6932H800.296V42.6725H834.691V56.9646H834.409ZM938.438 84.9882C935.619 88.6313 931.39 91.9941 925.469 94.7965C919.831 97.5988 912.501 99 903.48 99C892.203 99 883.181 95.6371 876.133 88.6312C869.085 81.6253 865.42 72.6578 865.42 61.4484V42.1121C865.42 30.9027 868.803 21.9351 875.851 14.9292C882.617 7.92329 891.639 4.28025 902.352 4.28025C913.629 4.28025 922.368 7.0826 928.289 12.4071C934.209 17.7316 937.31 24.7375 937.028 33.705V33.9852H919.549C919.549 29.2212 918.14 25.298 915.32 22.4956C912.501 19.6932 908.272 18.2921 902.916 18.2921C897.277 18.2921 892.767 20.5339 889.102 24.7374C885.719 29.2212 884.027 34.8259 884.027 41.5516V60.8879C884.027 67.8938 885.719 73.4985 889.384 77.9823C893.048 82.4661 897.841 84.4277 903.762 84.4277C908.272 84.4277 911.655 83.8672 914.193 83.0265C916.73 82.1858 918.703 81.0649 920.113 79.6637V61.7286H902.352V48.8378H938.72V84.9882H938.438ZM986.365 60.6076V97.3186H967.758V5.40118H999.897C1010.33 5.40118 1018.79 7.92332 1024.71 12.6873C1030.63 17.4513 1033.73 24.1769 1033.73 32.584C1033.73 37.348 1032.6 41.2714 1030.06 44.9145C1027.53 48.2773 1023.86 51.0797 1019.07 53.3216C1024.42 55.003 1028.37 57.5251 1030.91 61.4484C1033.16 65.0915 1034.57 69.8555 1034.57 75.4602V82.1858C1034.57 84.708 1034.85 87.5103 1035.7 90.3127C1036.26 93.115 1037.67 95.0767 1039.37 96.4779V97.8791H1020.2C1018.5 96.4779 1017.38 94.236 1016.81 91.1534C1016.25 88.0708 1015.97 84.9882 1015.97 82.1858V75.7404C1015.97 71.2567 1014.84 67.6135 1012.3 65.0914C1009.76 62.5693 1006.1 61.1681 1001.59 61.1681H986.365V60.6076ZM986.365 46.5958H999.615C1004.69 46.5958 1008.64 45.4749 1011.17 43.233C1013.71 40.9912 1015.12 37.9086 1015.12 33.4248C1015.12 29.2212 1013.71 25.8584 1011.17 23.3363C1008.64 20.8141 1004.97 19.6932 999.897 19.6932H986.365V46.5958ZM1112.38 77.702H1082.5L1076.3 97.5988H1056.84L1088.14 5.68143H1107.03L1138.04 97.5988H1118.59L1112.38 77.702ZM1087.01 63.1298H1107.87L1097.72 30.6224H1097.44L1087.01 63.1298ZM1179.2 63.9705V97.3186H1160.59V5.40118H1196.11C1206.83 5.40118 1215 8.20352 1221.2 13.528C1227.41 18.8525 1230.23 26.1386 1230.23 34.826C1230.23 43.5133 1227.13 50.7994 1221.2 56.1239C1215 61.4484 1206.83 64.2507 1196.11 64.2507H1179.2V63.9705ZM1179.2 49.9587H1196.11C1201.19 49.9587 1205.14 48.5575 1207.95 45.7552C1210.49 42.9528 1211.9 39.3098 1211.9 35.1062C1211.9 30.6224 1210.49 26.9793 1207.95 24.1769C1205.42 21.3746 1201.47 19.9734 1196.11 19.9734H1179.2V49.9587ZM1332 97.3186H1313.39V59.2064H1275.62V97.3186H1257.01V5.40118H1275.62V44.9145H1313.39V5.40118H1332V97.3186Z" fill="white"/>
</svg>
