<svg width="461" height="100" viewBox="0 0 461 100" fill="none" xmlns="http://www.w3.org/2000/svg">
<path fill-rule="evenodd" clip-rule="evenodd" d="M104.141 61.5624C105.741 61.5624 106.931 61.1337 107.716 60.2762C108.491 59.4188 108.876 58.1611 108.876 56.4986H119.8L119.873 56.7082C119.971 60.7955 118.522 64.1348 115.548 66.712C112.558 69.2844 108.759 70.5754 104.136 70.5754C98.3428 70.5754 93.866 68.8081 90.7255 65.2686C87.5752 61.7339 86 57.1464 86 51.5014V50.7059C86 45.0894 87.5703 40.5115 90.706 36.9625C93.8368 33.4135 98.2843 31.6366 104.034 31.6366C108.891 31.6366 112.763 32.9705 115.67 35.6239C118.566 38.2821 119.971 41.9025 119.873 46.4757L119.805 46.6853H108.876C108.876 44.9036 108.476 43.4555 107.677 42.336C106.872 41.2118 105.663 40.6544 104.034 40.6544C101.771 40.6544 100.186 41.569 99.2791 43.3935C98.3721 45.2181 97.9137 47.6571 97.9137 50.7059V51.5062C97.9137 54.6502 98.3721 57.1083 99.2791 58.89C100.186 60.6716 101.81 61.5577 104.141 61.5577M146.392 42.6647L142.043 42.6313C140.677 42.6313 139.555 42.8552 138.682 43.3078C137.84 43.7291 137.157 44.4037 136.737 45.2323V69.8466H124.789V32.3369H136.034L136.459 37.8486C137.259 35.8859 138.317 34.3615 139.638 33.2754C140.928 32.2001 142.575 31.6209 144.271 31.6462C145.38 31.6531 146.484 31.7923 147.558 32.0606L146.392 42.6695V42.6647ZM169.084 53.3069L169.123 53.5879H169.337L175.662 32.3322H188.395L173.156 75.4297C171.975 78.2021 170.454 80.4887 168.596 82.2894C166.728 84.0997 163.768 85 159.72 85C158.677 85 157.833 84.9333 157.17 84.8094C156.129 84.5964 155.093 84.3597 154.063 84.0997L155.512 75.7774L156.253 75.9299C156.462 75.9701 156.674 75.9893 156.887 75.987C158.774 75.987 160.154 75.7107 161.027 75.1629C161.895 74.6198 162.549 73.8005 162.968 72.7048L163.924 70.2658L150.703 32.3322H163.397L169.088 53.3069H169.084ZM215.017 51.1584C215.017 47.9905 214.544 45.4515 213.603 43.5365C212.661 41.6119 211.15 40.6544 209.077 40.6544C207.731 40.6544 206.595 40.8926 205.663 41.3832C204.737 41.8692 203.995 42.5742 203.454 43.4983V59.171C204.025 59.9809 204.771 60.5763 205.697 60.9717C206.629 61.3671 207.785 61.5624 209.145 61.5624C211.242 61.5624 212.749 60.7097 213.656 59.0138C214.563 57.3132 215.017 54.9361 215.017 51.8873V51.1584V51.1584ZM226.93 51.8873C226.93 57.5275 225.633 62.0531 223.044 65.4639C220.449 68.87 216.797 70.5754 212.081 70.5754C210.388 70.608 208.711 70.2523 207.185 69.5369C205.726 68.8177 204.451 67.7872 203.454 66.5215V84.2711H191.506V32.3322H202.679L203.103 36.4576C204.186 34.9093 205.458 33.7184 206.921 32.8848C208.384 32.0559 210.082 31.6366 212.013 31.6366C216.753 31.6366 220.42 33.4278 223.029 37.0149C225.628 40.5972 226.93 45.3133 226.93 51.1632V51.8873V51.8873ZM246.344 23.0048V32.3369H252.816V40.4496H246.344V57.6466C246.344 58.99 246.622 59.9523 247.173 60.543C247.46 60.8402 247.808 61.0733 248.196 61.2262C248.583 61.3792 248.999 61.4484 249.417 61.429C250.173 61.429 250.767 61.4052 251.206 61.3576C251.64 61.31 252.201 61.2147 252.884 61.0813L253.732 69.7513C252.555 70.0262 251.363 70.2393 250.163 70.3896C249.1 70.5182 247.851 70.5802 246.413 70.5802C242.477 70.5802 239.498 69.556 237.469 67.4933C235.44 65.4401 234.426 62.1817 234.426 57.7181V40.4448H229.052V32.3369H234.426V23H246.344V23.0048ZM267.738 51.4728C267.738 54.6169 268.236 57.0845 269.24 58.8757C270.24 60.6621 271.942 61.5624 274.346 61.5624C276.682 61.5624 278.355 60.6573 279.369 58.8566C280.379 57.0559 280.891 54.5931 280.891 51.4728V50.744C280.891 47.6952 280.379 45.2466 279.369 43.4078C278.355 41.5738 276.658 40.6544 274.278 40.6544C271.922 40.6544 270.24 41.5786 269.24 43.4269C268.236 45.28 267.733 47.7143 267.733 50.744V51.4728H267.738ZM255.786 50.744C255.786 45.1037 257.409 40.5115 260.662 36.9625C263.915 33.4135 268.455 31.6366 274.278 31.6366C280.125 31.6366 284.675 33.4135 287.928 36.9625C291.175 40.5115 292.804 45.1037 292.804 50.744V51.4728C292.804 57.1322 291.175 61.7339 287.928 65.2734C284.675 68.8081 280.144 70.5754 274.346 70.5754C268.479 70.5754 263.915 68.8081 260.662 65.2734C257.409 61.7339 255.786 57.1322 255.786 51.4728V50.744V50.744ZM309.068 32.3322L309.531 37.6008C310.775 35.7287 312.321 34.2662 314.164 33.2182C316.028 32.1571 318.152 31.6105 320.309 31.6366C324.059 31.6366 326.99 32.8276 329.096 35.2095C331.208 37.5913 332.266 41.3832 332.266 46.5852V69.8466H320.309V46.5519C320.309 44.3987 319.86 42.8791 318.953 41.9882C318.041 41.0974 316.705 40.6544 314.939 40.6544C313.963 40.6237 312.993 40.8072 312.099 41.1913C311.205 41.5755 310.411 42.1506 309.775 42.8743V69.8466H297.861V32.3322H309.068V32.3322ZM355.386 40.6544C353.665 40.6544 352.377 41.2546 351.514 42.4551C350.651 43.6603 350.129 45.2657 349.939 47.276L350.046 47.4475H360.336V46.5471C360.336 44.6512 359.936 43.1982 359.136 42.1788C358.332 41.1641 357.088 40.6544 355.386 40.6544M356.235 70.5707C350.602 70.5707 346.106 68.8414 342.746 65.3782C339.386 61.9102 337.708 57.5657 337.708 52.3398V51.0203C337.708 45.3086 339.23 40.6496 342.288 37.0292C345.34 33.4135 349.705 31.6176 355.386 31.6414C360.57 31.6414 364.637 33.1658 367.583 36.2146C370.533 39.2682 372.006 43.4078 372.006 48.6289V54.7646H350.159L350.085 54.9742C350.344 56.894 351.144 58.4708 352.485 59.7093C353.831 60.9431 355.62 61.5577 357.859 61.5577C360.122 61.5577 361.931 61.3862 363.286 61.0384C364.642 60.6954 366.359 60.0952 368.431 59.2377L371.26 66.3786C369.592 67.5838 367.427 68.5842 364.774 69.3797C362.006 70.1914 359.129 70.5929 356.24 70.5707M409.907 54.0738H410.122L414.257 32.3322H425.288L416.31 69.8513H406.196L399.969 49.9484H399.759L393.502 69.8513H383.427L374.405 32.3322H385.441L389.645 54.2453H389.859L396.082 32.3322H403.616L409.907 54.0738ZM449.511 59.3092C449.511 58.385 448.974 57.5561 447.901 56.832C446.828 56.0984 444.878 55.4506 442.049 54.8694C437.592 54.0119 434.237 52.6828 431.969 50.8821C429.707 49.0767 428.58 46.6186 428.58 43.4983C428.58 40.1923 429.994 37.3912 432.823 35.0904C435.651 32.7895 439.479 31.6414 444.312 31.6414C449.403 31.6414 453.456 32.7561 456.474 34.9856C459.493 37.215 460.927 40.1018 460.79 43.6365L460.717 43.8461H449.12C449.12 42.3693 448.735 41.2451 447.97 40.4781C447.204 39.7159 445.97 39.3348 444.278 39.3348C443.139 39.2985 442.023 39.6561 441.128 40.3448C440.724 40.6439 440.398 41.032 440.177 41.4773C439.956 41.9227 439.846 42.4127 439.855 42.9076C439.855 43.9033 440.342 44.7464 441.323 45.4372C442.298 46.1327 444.278 46.7567 447.248 47.3093C451.915 48.2144 455.372 49.5578 457.625 51.349C459.874 53.1401 461 55.6792 461 58.9614C461 62.3389 459.474 65.1162 456.421 67.298C453.368 69.4893 449.33 70.5754 444.312 70.5754C439.104 70.5754 434.983 69.2844 431.955 66.693C428.926 64.1015 427.483 61.2147 427.619 58.023L427.692 57.8181H438.519C438.563 59.5998 439.109 60.8812 440.157 61.6672C441.206 62.4533 442.693 62.8439 444.629 62.8439C446.229 62.8439 447.443 62.539 448.272 61.9245C449.096 61.3147 449.511 60.4382 449.511 59.3044" fill="white"/>
<path fill-rule="evenodd" clip-rule="evenodd" d="M37.0002 68.25H74L55.5001 49.5L37.0002 68.25Z" fill="white"/>
<path fill-rule="evenodd" clip-rule="evenodd" d="M0 68.25L18.4999 49.5L0 30.75V68.25Z" fill="white"/>
<path fill-rule="evenodd" clip-rule="evenodd" d="M37.0002 30.75L55.5001 49.5L74 30.75H37.0002Z" fill="white"/>
<path fill-rule="evenodd" clip-rule="evenodd" d="M18.5001 12L37.0002 30.75L55.4999 12H18.5001Z" fill="white"/>
<path fill-rule="evenodd" clip-rule="evenodd" d="M37.0002 68.25L55.5001 87L74 68.25H37.0002Z" fill="white"/>
<path fill-rule="evenodd" clip-rule="evenodd" d="M0 68.25L18.4999 87L37.0002 68.25H0Z" fill="white"/>
<path fill-rule="evenodd" clip-rule="evenodd" d="M55.4999 12L37.0002 30.75H74L55.4999 12Z" fill="white"/>
<path fill-rule="evenodd" clip-rule="evenodd" d="M18.5001 12L0 30.75H37.0002L18.5001 12Z" fill="white"/>
<path fill-rule="evenodd" clip-rule="evenodd" d="M18.4999 87H55.5001L37.0002 68.25L18.4999 87Z" fill="white"/>
<path fill-rule="evenodd" clip-rule="evenodd" d="M0 68.25H37.0002L18.4999 49.5L0 68.25Z" fill="white"/>
<path fill-rule="evenodd" clip-rule="evenodd" d="M0 30.75L18.4999 49.5L37.0002 30.75H0Z" fill="white"/>
</svg>
