<svg width="400" height="100" viewBox="0 0 400 100" fill="none" xmlns="http://www.w3.org/2000/svg">
<path fill-rule="evenodd" clip-rule="evenodd" d="M70.9727 44.8613V66.7175H81.6996V58.3841C81.6996 52.8773 81.7247 49.8492 81.7801 49.4461C81.8829 48.6296 82.1628 47.8454 82.6002 47.1487C82.9448 46.6158 83.4327 46.1912 84.0078 45.9238C84.5828 45.6564 85.2215 45.557 85.8505 45.6372C87.7289 45.7379 88.8341 46.8481 89.1662 48.9675C89.2165 49.29 89.2467 52.5901 89.2467 58.102V66.7326H99.9887V56.656C99.9887 48.1664 99.9887 46.4232 99.8679 45.5717C99.5157 42.5487 98.4943 40.2109 96.7585 38.4727C95.2465 36.9593 93.2638 36.0084 91.1385 35.7772C89.8367 35.6712 88.5273 35.7101 87.2341 35.8931C85.3939 36.265 83.7066 37.1791 82.3889 38.518L81.6291 39.2738V23H70.9727V44.8613ZM185.145 23.3325C184.853 24.0026 173.935 50.4337 173.935 50.474C173.935 50.5143 176.793 50.5042 180.315 50.5042H186.674L192.335 36.8302C195.449 29.308 198 23.126 198 23.0957C198 23.0655 195.152 23.0353 191.66 23.0353H185.286L185.145 23.3325ZM47.4308 35.752C45.2939 36.0144 43.2465 36.7679 41.4485 37.9537C37.836 40.3469 35.3706 44.3978 34.6813 49.0632C34.3729 51.3827 34.4906 53.7391 35.0285 56.0161C36.3568 61.256 39.8687 65.2614 44.4875 66.7981C45.8819 67.3185 47.369 67.5433 48.8547 67.4582C49.6959 67.5053 50.5397 67.458 51.3704 67.3171C53.2884 66.9721 55.0578 66.0554 56.4471 64.6871L57.1263 64.0019V66.7175H67.4759V36.3969H57.1213V39.1881L56.6181 38.6843C55.2434 37.3033 53.4939 36.3573 51.5868 35.9636C50.809 35.7814 50.0099 35.7069 49.2119 35.7419C48.3667 35.7268 47.5617 35.7318 47.4308 35.752ZM115.999 35.8326C113.043 36.2375 110.249 37.4275 107.908 39.2788C105.782 41.0555 104.154 43.3552 103.184 45.9521C102.214 48.5489 101.935 51.3538 102.374 54.0915C102.804 57.1654 104.147 60.0387 106.228 62.3387C108.31 64.6387 111.034 66.2591 114.046 66.9896C115.466 67.3523 116.928 67.5218 118.393 67.4934C121.034 67.5607 123.651 66.9685 126.006 65.7703C128.274 64.6495 130.23 62.9858 131.702 60.9266C133.174 58.8674 134.115 56.4764 134.444 53.9655C134.627 52.3888 134.627 50.7961 134.444 49.2194C134.08 46.6775 133.116 44.2592 131.631 42.1658C130.78 41.0693 129.817 40.0646 128.758 39.168C126.425 37.3474 123.643 36.1931 120.708 35.8276C119.142 35.6734 117.564 35.6751 115.999 35.8326V35.8326ZM150.162 35.8326C147.268 36.2246 144.529 37.3752 142.222 39.168C141.162 40.0632 140.199 41.0681 139.349 42.1658C137.864 44.2592 136.9 46.6775 136.537 49.2194C136.353 50.7961 136.353 52.3888 136.537 53.9655C136.967 57.2052 138.408 60.2261 140.654 62.5973C142.9 64.9686 145.837 66.5692 149.045 67.171C150.202 67.4156 151.384 67.5238 152.567 67.4934C155.266 67.5437 157.936 66.9258 160.34 65.6947C166.634 62.4601 169.87 55.472 168.426 48.247C167.092 41.5712 161.794 36.7345 154.841 35.8175C153.284 35.6689 151.717 35.6739 150.162 35.8326V35.8326ZM0 36.4473C0 36.4473 2.89305 43.3347 6.43514 51.6983C9.97723 60.0619 12.8652 66.9392 12.8652 66.9845C12.8652 67.0299 11.8237 69.5037 10.5558 72.5267C9.28793 75.5497 8.2414 77.9782 8.2414 77.9933C8.2414 78.0084 10.8024 77.9933 13.9369 77.9933H19.6375L28.1908 57.3059C32.9103 45.9244 36.7442 36.5682 36.7744 36.5178C36.8046 36.4674 35.6272 36.4221 31.1292 36.4372H25.4739L22.0022 45.2593C20.0953 50.1062 18.5105 54.0562 18.4803 54.0361C18.4501 54.0159 16.9004 50.0457 15.0136 45.219L11.5873 36.4372H5.77099C2.61632 36.3969 0 36.4221 0 36.4473ZM52.6836 45.612C53.7546 45.8685 54.7351 46.4135 55.5191 47.1878C56.303 47.9622 56.8606 48.9366 57.1313 50.0054C57.3627 51.0576 57.3627 52.1475 57.1313 53.1997C56.8603 54.2634 56.3078 55.2343 55.5322 56.0101C54.7566 56.7859 53.7864 57.338 52.7239 57.6082C51.6729 57.8375 50.5849 57.8375 49.534 57.6082C48.6071 57.366 47.748 56.9145 47.0223 56.2884C46.2967 55.6622 45.7239 54.8779 45.3478 53.9958C44.9776 53.0388 44.837 52.0082 44.9375 50.9869C45.038 49.9655 45.3768 48.9822 45.9265 48.116C46.6579 47.0524 47.6996 46.241 48.9091 45.7927C50.1186 45.3445 51.4369 45.2814 52.6836 45.612V45.612ZM119.536 45.612C120.681 45.8183 121.74 46.3587 122.579 47.1654C123.419 47.9721 124.002 49.0092 124.255 50.1465C124.442 51.1469 124.428 52.1744 124.215 53.1695C123.954 54.1938 123.427 55.1308 122.688 55.8848C121.948 56.6389 121.022 57.1831 120.004 57.4621C118.949 57.656 117.868 57.656 116.814 57.4621C115.981 57.2392 115.208 56.8363 114.548 56.2818C113.889 55.7273 113.358 55.0347 112.995 54.2527C112.577 53.4217 112.381 52.4966 112.426 51.5673C112.389 50.7342 112.542 49.9037 112.874 49.1388C113.324 48.0521 114.084 47.1218 115.058 46.4635C116.396 45.6405 117.992 45.3443 119.536 45.6321V45.612ZM153.699 45.612C154.672 45.7771 155.587 46.1874 156.358 46.8044C157.129 47.4214 157.731 48.2248 158.106 49.1388C158.743 50.7924 158.699 52.6311 157.985 54.2527C157.621 55.0343 157.091 55.7266 156.431 56.281C155.771 56.8355 154.998 57.2386 154.167 57.4621C153.112 57.656 152.031 57.656 150.977 57.4621C149.958 57.1841 149.031 56.6401 148.292 55.8859C147.552 55.1317 147.025 54.1943 146.765 53.1695C146.534 52.119 146.534 51.0307 146.765 49.9802C147.085 48.6939 147.828 47.5527 148.873 46.7402C149.919 45.9278 151.208 45.4913 152.531 45.5011C152.923 45.5172 153.313 45.5609 153.699 45.6321V45.612ZM176.466 53.114C174.964 53.2874 173.555 53.9266 172.434 54.9421C171.314 55.9575 170.538 57.2985 170.217 58.7771C170.033 59.8354 170.048 60.9188 170.262 61.9714C170.565 63.2507 171.227 64.4164 172.17 65.3307C173.113 66.245 174.298 66.8696 175.585 67.1307C176.067 67.2138 176.555 67.2559 177.044 67.2566C178.588 67.2622 180.091 66.7668 181.33 65.8447C182.569 64.9226 183.475 63.6233 183.915 62.1417C184.354 60.66 184.302 59.0757 183.766 57.6262C183.23 56.1767 182.24 54.9401 180.944 54.1016C179.591 53.313 178.023 52.9743 176.466 53.1342V53.114Z" fill="white"/>
<path fill-rule="evenodd" clip-rule="evenodd" d="M227.828 22.2394C226.95 22.514 226.146 22.9838 225.474 23.614C224.802 24.2442 224.28 25.0185 223.946 25.8794C223.612 26.7404 223.476 27.6659 223.547 28.5872C223.617 29.5085 223.894 30.4019 224.355 31.2011C225.057 32.2517 226.016 33.1033 227.14 33.6742C227.924 34.0891 228.819 34.2443 229.696 34.1174C231.265 34.1174 231.38 34.1174 232.27 33.6742C233.554 33.0146 234.606 31.9752 235.285 30.6958C235.627 29.9658 235.821 29.1742 235.855 28.3677C235.889 27.5611 235.762 26.7559 235.482 25.9994C235.202 25.2428 234.775 24.5502 234.224 23.9624C233.674 23.3745 233.013 22.9032 232.279 22.5762C231.56 22.1784 230.745 21.9882 229.925 22.0267C229.219 21.9553 228.506 22.0276 227.828 22.2394Z" fill="white"/>
<path fill-rule="evenodd" clip-rule="evenodd" d="M212.112 22.4965C207.07 23.507 203.756 26.7247 202.495 31.8393C202.277 32.8596 202.156 33.8984 202.134 34.9417L202.055 36.8919H198V45.8713H200.01L202.019 45.9156V67.1896H212.931V45.9156H220.362V36.9362H212.843L212.94 35.9434C213.143 33.7362 214.016 32.513 215.752 31.9811C217.11 31.6333 218.539 31.6857 219.868 32.1318L220.75 32.4155C220.75 32.4155 220.794 30.3501 220.794 27.8327V23.2499L220.009 22.9485C218.472 22.4176 216.847 22.1889 215.223 22.2749C214.182 22.2542 213.14 22.3284 212.112 22.4965Z" fill="white"/>
<path fill-rule="evenodd" clip-rule="evenodd" d="M256.765 36.2714C254.64 36.6582 252.728 37.8118 251.388 39.5157L250.763 40.3489V36.8919H239.718V67.1896H250.763V58.9282C250.763 54.1859 250.824 50.3211 250.904 49.8513C251.07 48.7658 251.573 47.7608 252.34 46.9793C253.109 46.3907 254.075 46.123 255.035 46.232C255.996 46.3409 256.877 46.8182 257.497 47.5643C258.325 48.7699 258.316 48.6103 258.378 58.3166V67.1807H269.467V57.244C269.467 46.7045 269.414 45.4901 268.841 43.4957C268.389 41.7627 267.475 40.187 266.196 38.9395C265.093 37.746 263.675 36.8942 262.107 36.4841C260.354 36.084 258.543 36.0118 256.765 36.2714Z" fill="white"/>
<path fill-rule="evenodd" clip-rule="evenodd" d="M327.456 36.2891C325.382 36.788 323.526 37.9515 322.167 39.6043L321.691 40.2248V36.8919H310.585V67.1187H321.762V58.5825C321.762 49.4878 321.762 49.2928 322.414 48.0607C322.704 47.4925 323.147 47.0176 323.693 46.6901C324.238 46.3626 324.864 46.1956 325.499 46.2081C325.968 46.1633 326.441 46.2262 326.882 46.3921C327.324 46.5579 327.722 46.8223 328.046 47.1654C329.236 48.3532 329.184 47.9189 329.228 58.1659L329.272 67.1807H340.316L340.272 56.1803C340.272 45.304 340.219 45.1621 339.919 44.0098C339.659 43.1277 339.329 42.268 338.932 41.4392C338.524 40.5017 337.923 39.6619 337.169 38.9749C336.242 37.9625 335.083 37.1927 333.793 36.7323C331.754 36.0389 329.571 35.8863 327.456 36.2891Z" fill="white"/>
<path fill-rule="evenodd" clip-rule="evenodd" d="M356.561 36.2802C354.261 36.5943 352.061 37.4221 350.121 38.7028C348.18 39.9836 346.55 41.6848 345.349 43.6818C344.587 45.0186 344.018 46.457 343.657 47.9544C343.305 49.2616 343.174 50.6189 343.269 51.9698C343.154 53.8836 343.411 55.8017 344.027 57.6163C344.867 60.1724 346.374 62.4555 348.389 64.2279C350.404 66.0004 352.854 67.1975 355.485 67.6949C356.724 67.9176 357.983 68.0009 359.24 67.943C361.353 68.0875 363.469 67.7196 365.41 66.8705L366.495 66.4272V56.2423L365.613 56.7831C364.37 57.5467 362.945 57.9572 361.488 57.9708C360.132 58.1245 358.761 57.8716 357.548 57.244C356.382 56.6433 355.451 55.6662 354.904 54.4695C354.524 53.7465 354.376 52.9227 354.481 52.1116C354.413 51.3553 354.522 50.5935 354.798 49.8867C355.679 47.6175 357.821 46.2524 360.677 46.1195C362.704 46.0131 363.533 46.2436 366.433 47.6973C366.495 47.6973 366.539 45.4635 366.539 42.6802V37.6099L365.657 37.2553C362.757 36.1587 359.626 35.8232 356.561 36.2802Z" fill="white"/>
<path fill-rule="evenodd" clip-rule="evenodd" d="M224.179 67.1896H235.223V36.8919H224.179V67.1896Z" fill="white"/>
<path fill-rule="evenodd" clip-rule="evenodd" d="M389.623 56.916L388.936 57.6163C388.251 58.3843 387.35 58.9252 386.353 59.1675C383.11 60.0539 379.866 58.2811 379.346 55.4712L379.231 54.8507H399.989V52.3067C400.033 51.0719 399.947 49.8359 399.733 48.6192C399.177 45.5276 397.701 42.6782 395.502 40.4464C393.452 38.3934 390.836 37.0068 387.993 36.4664C385.898 36.1455 383.77 36.1038 381.664 36.3423C373.246 37.8315 367.746 45.2065 368.557 53.9111C368.736 56.6544 369.616 59.3048 371.113 61.6052C372.205 63.1952 373.598 64.552 375.214 65.5972C376.83 66.6425 378.636 67.3554 380.527 67.6949C383.333 68.0875 386.181 68.0636 388.98 67.624C391.873 67.0374 394.54 65.6319 396.666 63.573C397.547 62.6866 399.055 60.6833 398.922 60.5592C398.79 60.4351 396.781 59.6728 394.233 58.7066L389.623 56.916ZM379.646 47.3605C380.474 45.1356 383.242 44.0098 386.106 44.7012C386.873 44.9167 387.57 45.3304 388.129 45.9012C388.687 46.4719 389.087 47.1799 389.288 47.9544L389.412 48.5128H384.388C378.685 48.5483 379.134 48.6635 379.646 47.3605Z" fill="white"/>
<path fill-rule="evenodd" clip-rule="evenodd" d="M295.213 36.8919V40.0298L294.49 39.2586C292.933 37.6626 290.905 36.6148 288.708 36.2714C287.362 36.078 285.999 36.0423 284.645 36.165C282.56 36.5355 280.571 37.3287 278.801 38.4963C275.514 40.9936 273.305 44.6648 272.631 48.7521C272.318 50.9748 272.318 53.2307 272.631 55.4534C273.097 58.0561 274.152 60.516 275.716 62.6423C277.683 65.268 280.529 67.0881 283.728 67.7657C285.751 68.1225 287.824 68.0713 289.828 67.6151C291.43 67.1654 292.899 66.332 294.111 65.1863L295.213 64.1492V67.1896H306.116V36.8919H295.213ZM291.423 57.7581C290.119 58.1347 288.739 58.1622 287.421 57.8379C286.497 57.536 285.657 57.019 284.97 56.329C284.282 55.6389 283.766 54.7953 283.464 53.8667C283.246 53.1681 283.168 52.433 283.234 51.7039C283.217 50.9215 283.412 50.1492 283.799 49.4701C284.438 48.1605 285.515 47.1193 286.842 46.5292C288.168 45.9392 289.659 45.838 291.053 46.2436C291.86 46.4892 292.611 46.8939 293.262 47.4341C293.913 47.9744 294.45 48.6393 294.843 49.3903C295.214 50.1587 295.42 50.9972 295.446 51.8509C295.472 52.7046 295.319 53.5544 294.996 54.3444C294.673 55.1344 294.188 55.8469 293.572 56.4352C292.957 57.0235 292.224 57.4743 291.423 57.7581Z" fill="white"/>
</svg>
